PathFileType  4	(X/Y/Z) C:\Users\antoi\Documents\MyRepositories\mobilecap\ResultsAnalysis
DataRate	CameraRate	NumFrames	NumMarkers	Units	OrigDataRate	OrigDataStartFrame	OrigNumFrames
100.0	100.0	6	51	mm	100.0	83	132
Frame#	Time	r_knee			r_shank_antsup			r_ankle			r_calc			r_5meta			r_toe			L_knee			L_shank_antsup			L_ankle			L_calc			L_5meta			L_toe			r_sh2			r_sh3			r_sh4			L_sh2			L_sh3			r_thigh1			r_thigh2			r_thigh3			r_thigh4			r_thigh5			L_thigh1			L_thigh2			L_thigh3			L_thigh4			r.ASIS			r.PSIS			L.ASIS			L.PSIS			C7			R_Shoulder			L_Shoulder			R_Sternum			L_Sternum			R_humerus			R_elbow_med			R_elbow_lat			R_forearm			R_wrist_radius			R_wrist_ulna			L_humerus			L_elbow_med			L_elbow_lat			L_forearm			L_wrist_radius			L_wrist_ulna			R_HJC			L_HJC			R_HJC_reg			L_HJC_reg			
		X1	Y1	Z1	X2	Y2	Z2	X3	Y3	Z3	X4	Y4	Z4	X5	Y5	Z5	X6	Y6	Z6	X7	Y7	Z7	X8	Y8	Z8	X9	Y9	Z9	X10	Y10	Z10	X11	Y11	Z11	X12	Y12	Z12	X13	Y13	Z13	X14	Y14	Z14	X15	Y15	Z15	X16	Y16	Z16	X17	Y17	Z17	X18	Y18	Z18	X19	Y19	Z19	X20	Y20	Z20	X21	Y21	Z21	X22	Y22	Z22	X23	Y23	Z23	X24	Y24	Z24	X25	Y25	Z25	X26	Y26	Z26	X27	Y27	Z27	X28	Y28	Z28	X29	Y29	Z29	X30	Y30	Z30	X31	Y31	Z31	X32	Y32	Z32	X33	Y33	Z33	X34	Y34	Z34	X35	Y35	Z35	X36	Y36	Z36	X37	Y37	Z37	X38	Y38	Z38	X39	Y39	Z39	X40	Y40	Z40	X41	Y41	Z41	X42	Y42	Z42	X43	Y43	Z43	X44	Y44	Z44	X45	Y45	Z45	X46	Y46	Z46	X47	Y47	Z47	X48	Y48	Z48	X49	Y49	Z49	X50	Y50	Z50	X51	Y51	Z51	

83	0.82000000	896.56746	491.16607	-46.11873	901.66208	423.67835	-55.20136	580.92324	256.68458	-94.40193	525.94357	276.37676	-155.10623	600.61953	118.28546	-45.07187	650.20187	98.95023	-92.27462	862.39764	487.33743	-338.93486	890.40227	399.79452	-339.98194	812.28120	90.96920	-271.75027	750.66264	60.31959	-216.84407	932.73592	40.74599	-292.74630	975.22480	62.04052	-238.41473	813.34662	349.79120	-72.88335	851.38496	473.80105	-23.17256	763.31461	400.67209	-27.64332	803.90414	411.52916	-360.10072	793.17713	292.01774	-345.21599	912.56238	791.08724	-107.71870	948.11714	685.45039	-95.74789	933.44974	662.72850	-33.26661	841.54493	771.57769	-19.20403	880.09053	664.95147	-11.01825	862.83745	814.02033	-377.45422	884.08405	674.02972	-378.13624	752.60287	796.82765	-383.86821	769.75004	663.56393	-361.60973	866.67391	946.25689	-77.80761	679.16021	987.30722	-158.59465	882.48042	943.72687	-311.95661	680.87683	994.13629	-258.28591	745.51702	1459.75526	-221.36159	800.05041	1430.69753	-58.61305	810.80004	1401.82176	-378.14157	856.38136	1361.32212	-197.00544	858.39183	1355.75799	-234.86174	803.23310	1200.26292	39.55558	739.14137	1106.51785	23.93721	781.73105	1112.46694	71.80600	871.01384	994.86642	65.44019	924.93349	909.15268	33.47500	899.66144	896.44941	70.94421	795.89988	1167.76356	-455.29431	736.84089	1067.29988	-417.99607	766.82733	1071.07969	-470.14637	828.16894	941.07366	-480.43109	862.75362	838.58007	-456.36699	829.72945	830.69298	-483.64159	790.52605	867.80558	-116.86854	789.07786	878.92676	-307.21131	801.16736	870.22248	-116.31850	803.83021	880.80992	-270.81865	
84	0.83000000	918.05598	496.65904	-46.40011	925.28634	429.62098	-54.78933	611.11884	250.88282	-93.76168	554.89849	267.31266	-154.54417	637.56276	114.39552	-42.94503	687.60040	96.92050	-90.32708	865.22171	487.42056	-339.03151	892.08841	399.69690	-340.08942	812.30805	90.96770	-271.70661	750.76705	60.20255	-216.75514	932.73144	40.71852	-292.75116	975.22419	61.97184	-238.44810	839.94835	352.54932	-72.55305	872.99586	478.22000	-23.71344	788.03496	401.85561	-27.97249	805.69687	412.02638	-360.11325	794.15981	292.67051	-345.23013	926.54380	796.91430	-107.61647	965.26572	692.71061	-95.67891	951.05331	669.36178	-33.24583	856.64817	775.74902	-19.26419	897.38150	669.91467	-10.82400	872.51093	814.22437	-377.40549	891.13831	673.89286	-377.78521	762.03468	799.00822	-384.04089	776.53310	665.54948	-361.86446	879.12723	949.21493	-79.16406	691.31985	989.92444	-158.62721	893.60191	945.33002	-313.17441	692.54520	996.06140	-258.37809	758.19748	1461.85153	-221.87315	811.86849	1432.58917	-58.87126	824.44039	1404.46634	-378.20727	868.81306	1363.46367	-196.99443	870.97928	1357.90268	-234.80731	811.73388	1201.51038	38.73904	745.84058	1109.34841	22.78968	788.56800	1114.09125	70.50125	873.05677	993.32693	64.97853	922.80816	904.73194	34.20765	897.70006	893.71978	72.17988	813.89078	1170.62474	-455.89733	755.73304	1069.02008	-420.09649	786.79627	1073.25847	-471.51822	851.71523	944.80936	-479.66113	888.83118	843.58119	-454.58775	856.56363	834.56977	-482.20820	802.88406	870.55760	-117.06935	800.18500	880.59837	-307.45298	813.30768	873.20969	-116.78346	815.20551	882.71207	-271.22995	
85	0.84000000	938.92138	501.73558	-46.88543	948.52300	435.33747	-54.61589	642.06766	243.64158	-92.99468	584.65248	256.83466	-153.62821	675.61781	109.27711	-41.39747	726.19401	94.16242	-89.03532	867.83345	487.47361	-339.02825	893.45377	399.58000	-340.15863	812.33360	90.97504	-271.58641	750.88239	60.02249	-216.60847	932.72432	40.70852	-292.75704	975.23793	61.90216	-238.46933	866.64505	354.92456	-72.32213	894.19323	481.97709	-24.16078	812.63335	402.13666	-28.16059	807.15537	412.56333	-359.80973	794.86734	293.36326	-344.91988	940.41396	802.37665	-107.55319	982.05539	699.59482	-95.71835	968.41973	675.69823	-33.31875	871.74243	779.73136	-19.28761	914.66154	674.81976	-10.70451	882.05449	814.20513	-377.35428	898.00386	673.60742	-377.30858	771.29715	801.05594	-384.07442	783.11731	667.38703	-361.84826	891.69645	951.99269	-80.56119	703.48675	992.26900	-158.48155	904.59754	946.65848	-314.51926	704.16142	997.71773	-258.25675	770.84341	1463.71586	-222.35587	823.78741	1434.19601	-59.14831	838.02929	1406.98863	-378.26428	881.21835	1365.39612	-197.08849	883.53009	1359.84650	-234.85714	820.14818	1202.53457	37.90082	752.51780	1112.00010	21.54176	795.26128	1115.54661	69.15265	874.86375	991.87402	64.52965	920.44280	900.64011	35.05782	895.52710	891.27640	73.47062	831.88028	1173.44549	-456.46896	774.73158	1070.69166	-422.04727	806.69810	1075.44793	-472.80237	875.23864	948.69375	-478.88277	914.93056	848.86214	-452.69832	883.41707	838.69266	-480.66286	815.36444	873.09121	-117.20926	811.17007	881.99649	-307.61667	825.52830	875.89688	-117.27276	826.57144	884.32867	-271.71860	
86	0.85000000	959.18138	506.34358	-47.54799	971.37997	440.77221	-54.70028	673.84530	235.17311	-92.12920	615.22248	245.11734	-152.37287	714.91298	103.22330	-40.36899	765.94702	90.88193	-88.40113	870.25077	487.50419	-338.99729	894.54089	399.44071	-340.23866	812.35558	91.02058	-271.41839	751.01340	59.80881	-216.41153	932.71272	40.70897	-292.76981	975.26798	61.83106	-238.48091	893.40333	356.96141	-72.18510	915.00310	485.03197	-24.52502	837.09720	401.56862	-28.23927	808.32981	413.14130	-359.27168	795.33582	294.09455	-344.36379	954.23383	807.37840	-107.58070	998.48358	705.96045	-95.90699	985.58835	681.64044	-33.50225	886.84380	783.47362	-19.26698	931.92246	679.55301	-10.65481	891.45790	813.96839	-377.32556	904.66180	673.17535	-376.78294	780.38718	802.96991	-383.95264	789.49963	669.09490	-361.57648	904.37043	954.54255	-81.95535	715.66017	994.31058	-158.16961	915.50019	947.66057	-315.92229	715.75438	999.12329	-257.94137	783.46145	1465.32766	-222.81530	835.79935	1435.48305	-59.43597	851.56067	1409.33594	-378.30985	893.61048	1367.09310	-197.29236	896.06194	1361.55532	-235.01693	828.49148	1203.31069	37.04547	759.19131	1114.42401	20.18699	801.82896	1116.79885	67.75985	876.51019	990.47461	64.17940	917.97975	896.89293	36.06398	893.21757	889.09256	74.81461	849.82044	1176.19096	-457.02816	793.79835	1072.27787	-423.81414	826.50610	1077.59086	-473.97672	898.69124	952.68214	-478.10993	940.96657	854.35780	-450.73214	910.22534	843.01460	-479.01603	827.93604	875.37163	-117.27071	822.06083	883.09642	-307.68096	837.82450	878.19355	-117.79331	837.96828	885.64155	-272.27354	
87	0.86000000	978.86071	510.46536	-48.32730	993.85881	445.88871	-55.05105	706.51119	225.69321	-91.18842	646.66558	232.34515	-150.80689	755.49636	96.52315	-39.81178	806.76654	87.27460	-88.39423	872.52120	487.52387	-339.00145	895.44795	399.28616	-340.35833	812.37032	91.12491	-271.23547	751.15314	59.60302	-216.18186	932.69477	40.70957	-292.79027	975.31476	61.75905	-238.48830	920.17163	358.68276	-72.15420	935.43980	487.37358	-24.81260	861.45707	400.19839	-28.22843	809.33402	413.75424	-358.61740	795.65996	294.84770	-343.67706	968.04144	811.84772	-107.74323	1014.59799	711.71743	-96.28013	1002.59199	687.10658	-33.81475	901.96221	786.93529	-19.18926	949.14591	684.01290	-10.68419	900.71843	813.54138	-377.32133	911.12421	672.60995	-376.27106	789.32250	804.75328	-383.65920	795.71408	670.69731	-361.09050	917.13075	956.82530	-83.30260	727.84095	996.03524	-157.70565	926.35148	948.31484	-317.31104	727.34884	1000.29610	-257.45755	796.05883	1466.67667	-223.25336	847.88292	1436.43252	-59.73526	865.02054	1411.46674	-378.34046	905.99481	1368.53025	-197.59793	908.59106	1363.00461	-235.27872	836.78899	1203.82166	36.16826	765.87645	1116.58667	18.71843	808.30074	1117.82581	66.32249	878.07366	989.10296	63.99396	915.53609	893.49749	37.26232	890.84749	887.14602	76.21183	867.67360	1178.82867	-457.58356	812.89674	1073.74796	-425.37208	846.20486	1079.63912	-475.02532	922.03365	956.73031	-477.34028	966.87810	860.00880	-448.72120	936.94123	847.49332	-477.27523	840.56825	877.37404	-117.24103	832.89403	883.89325	-307.63065	850.18779	880.05161	-118.33347	849.42348	886.64918	-272.86570	
88	0.87000000	997.98178	514.09788	-49.15441	1015.93897	450.65630	-55.66934	740.10020	215.41611	-90.19860	679.06584	218.70759	-148.98498	797.33080	89.45901	-39.68731	848.53172	83.54367	-88.94750	874.71105	487.54569	-339.08462	896.30557	399.13181	-340.53148	812.37768	91.29044	-271.06503	751.28042	59.45689	-215.94924	932.66994	40.69790	-292.81507	975.37957	61.68788	-238.49885	946.87488	360.08436	-72.26759	955.51816	488.99950	-25.02402	885.79099	398.06419	-28.12659	810.31168	414.39085	-357.97043	795.96223	295.60070	-342.98422	981.84427	815.74284	-108.07238	1030.47434	716.82373	-96.86130	1019.44250	692.02790	-34.27488	917.09890	790.08571	-19.04924	966.30802	688.12256	-10.81458	909.83776	812.96597	-377.32924	917.43039	671.93030	-375.81630	798.13578	806.41185	-383.18886	801.82437	672.21416	-360.44655	929.95294	958.80790	-84.55894	740.03172	997.44013	-157.10764	937.19665	948.62598	-318.61871	738.96304	1001.24802	-256.83239	808.64293	1467.75991	-223.66756	860.00857	1437.04406	-60.05634	878.39287	1413.35094	-378.35349	918.37227	1369.68583	-197.98548	921.12855	1364.17882	-235.62293	845.06947	1204.05740	35.26014	772.59390	1118.46959	17.12924	814.71525	1118.61910	64.83991	879.62350	987.74508	63.99975	913.19861	890.45017	38.67456	888.48947	885.42288	77.65700	885.41636	1181.32884	-458.12978	832.00168	1075.07487	-426.70603	865.78525	1081.55649	-475.93939	945.23787	960.79918	-476.56191	992.64581	865.77350	-446.68669	963.53663	852.09403	-475.44886	853.23306	879.07988	-117.11349	843.71145	884.39661	-307.45818	862.60721	881.45906	-118.86354	860.94933	887.36000	-273.45341	
